<svg width="32" height="32" viewBox="0 0 32 32" fill="none" xmlns="http://www.w3.org/2000/svg">
<rect width="32" height="32" rx="4" fill="#EAEBE6"/>
<path d="M10.7269 23.32C9.64688 23.32 8.75354 23.1267 8.04688 22.74C7.34021 22.34 6.81354 21.7933 6.46688 21.1C6.12021 20.4067 5.94688 19.62 5.94688 18.74V10.5H9.54688V18.62C9.54688 19.1 9.68021 19.4733 9.94688 19.74C10.2269 19.9933 10.6002 20.12 11.0669 20.12C11.3202 20.12 11.6135 20.0867 11.9469 20.02C12.2935 19.9533 12.5869 19.8533 12.8269 19.72V22.9C12.5735 23.0333 12.2469 23.1333 11.8469 23.2C11.4469 23.28 11.0735 23.32 10.7269 23.32ZM12.8269 16H4.24688V13H12.8269V16ZM18.0219 23H14.4219V17.46C14.4219 16.5667 14.5952 15.76 14.9419 15.04C15.2885 14.32 15.8152 13.7467 16.5219 13.32C17.2285 12.8933 18.1219 12.68 19.2019 12.68C19.5485 12.68 19.8885 12.7133 20.2219 12.78C20.5685 12.8333 20.8685 12.9133 21.1219 13.02V16.48C20.8819 16.3467 20.6219 16.2467 20.3419 16.18C20.0619 16.1133 19.7952 16.08 19.5419 16.08C19.0752 16.08 18.7019 16.2133 18.4219 16.48C18.1552 16.7333 18.0219 17.1 18.0219 17.58V23Z" fill="black"/>
<path d="M24.3842 23.24C23.9976 23.24 23.6376 23.1467 23.3042 22.96C22.9709 22.76 22.7042 22.4933 22.5042 22.16C22.3176 21.8267 22.2242 21.4667 22.2242 21.08C22.2242 20.68 22.3176 20.32 22.5042 20C22.7042 19.6667 22.9709 19.4067 23.3042 19.22C23.6376 19.02 23.9976 18.92 24.3842 18.92C24.7842 18.92 25.1442 19.02 25.4642 19.22C25.7976 19.4067 26.0576 19.6667 26.2442 20C26.4442 20.32 26.5442 20.68 26.5442 21.08C26.5442 21.4667 26.4442 21.8267 26.2442 22.16C26.0576 22.4933 25.7976 22.76 25.4642 22.96C25.1442 23.1467 24.7842 23.24 24.3842 23.24Z" fill="#FF0000"/>
</svg>
