<svg width="72" height="72" viewBox="0 0 72 72" fill="none" xmlns="http://www.w3.org/2000/svg">
<path d="M27.3713 47.9782C25.604 47.9782 24.1421 47.6619 22.9858 47.0291C21.8294 46.3745 20.9675 45.4799 20.4004 44.3455C19.833 43.211 19.5495 41.9236 19.5495 40.4836V27H25.4404V40.2873C25.4404 41.0727 25.6585 41.6836 26.0949 42.12C26.5531 42.5345 27.1639 42.7418 27.9276 42.7418C28.3421 42.7418 28.8221 42.6873 29.3676 42.5782C29.9348 42.469 30.4149 42.3054 30.8076 42.0873V47.2909C30.393 47.509 29.8586 47.6727 29.204 47.7818C28.5495 47.9127 27.9384 47.9782 27.3713 47.9782ZM30.8076 36H16.7676V31.0909H30.8076V36ZM39.3085 47.4545H33.4176V38.3891C33.4176 36.9273 33.7012 35.6073 34.2685 34.4291C34.8357 33.2509 35.6976 32.3128 36.854 31.6145C38.0103 30.9163 39.4722 30.5673 41.2395 30.5673C41.8066 30.5673 42.363 30.6218 42.9086 30.7309C43.4757 30.8181 43.9666 30.949 44.3813 31.1236V36.7855C43.9885 36.5673 43.5631 36.4037 43.1049 36.2945C42.6467 36.1854 42.2103 36.1309 41.7958 36.1309C41.0321 36.1309 40.4213 36.349 39.9631 36.7855C39.5267 37.1999 39.3085 37.8 39.3085 38.5855V47.4545Z" fill="black"/>
<path d="M49.7196 47.8473C49.087 47.8473 48.4979 47.6946 47.9523 47.3891C47.4069 47.0618 46.9705 46.6254 46.6432 46.08C46.3379 45.5346 46.1851 44.9455 46.1851 44.3127C46.1851 43.6582 46.3379 43.0691 46.6432 42.5455C46.9705 42.0001 47.4069 41.5746 47.9523 41.2691C48.4979 40.9418 49.087 40.7782 49.7196 40.7782C50.3741 40.7782 50.9632 40.9418 51.4869 41.2691C52.0324 41.5746 52.4579 42.0001 52.7632 42.5455C53.0905 43.0691 53.2542 43.6582 53.2542 44.3127C53.2542 44.9455 53.0905 45.5346 52.7632 46.08C52.4579 46.6254 52.0324 47.0618 51.4869 47.3891C50.9632 47.6946 50.3741 47.8473 49.7196 47.8473Z" fill="#FF0000"/>
</svg>
