<svg width="192" height="192" viewBox="0 0 192 192" fill="none" xmlns="http://www.w3.org/2000/svg">
<rect width="192" height="192" rx="28" fill="#EAEBE6"/>
<path d="M66.752 137.048C59.84 137.048 54.1227 135.811 49.6 133.336C45.0773 130.776 41.7067 127.277 39.488 122.84C37.2693 118.403 36.16 113.368 36.16 107.736V55H59.2V106.968C59.2 110.04 60.0533 112.429 61.76 114.136C63.552 115.757 65.9413 116.568 68.928 116.568C70.5493 116.568 72.4267 116.355 74.56 115.928C76.7787 115.501 78.656 114.861 80.192 114.008V134.36C78.5707 135.213 76.48 135.853 73.92 136.28C71.36 136.792 68.9707 137.048 66.752 137.048ZM80.192 90.2H25.28V71H80.192V90.2ZM113.44 135H90.4V99.544C90.4 93.8267 91.5093 88.664 93.728 84.056C95.9467 79.448 99.3173 75.7787 103.84 73.048C108.363 70.3173 114.08 68.952 120.992 68.952C123.211 68.952 125.387 69.1653 127.52 69.592C129.739 69.9333 131.659 70.4453 133.28 71.128V93.272C131.744 92.4187 130.08 91.7787 128.288 91.352C126.496 90.9253 124.789 90.712 123.168 90.712C120.181 90.712 117.792 91.5653 116 93.272C114.293 94.8933 113.44 97.24 113.44 100.312V135Z" fill="black"/>
<path d="M154.159 136.536C151.684 136.536 149.38 135.939 147.247 134.744C145.114 133.464 143.407 131.757 142.127 129.624C140.932 127.491 140.335 125.187 140.335 122.712C140.335 120.152 140.932 117.848 142.127 115.8C143.407 113.667 145.114 112.003 147.247 110.808C149.38 109.528 151.684 108.888 154.159 108.888C156.719 108.888 159.023 109.528 161.071 110.808C163.204 112.003 164.868 113.667 166.063 115.8C167.343 117.848 167.983 120.152 167.983 122.712C167.983 125.187 167.343 127.491 166.063 129.624C164.868 131.757 163.204 133.464 161.071 134.744C159.023 135.939 156.719 136.536 154.159 136.536Z" fill="#FF0000"/>
</svg>
