<svg width="75" height="24" viewBox="0 0 75 24" fill="none" xmlns="http://www.w3.org/2000/svg">
<g clip-path="url(#clip0_25_491)">
<path d="M61.9288 14.4255C61.7027 14.3052 61.4403 14.273 61.192 14.3351C60.9437 14.3971 60.7271 14.549 60.5837 14.7615C60.2914 15.2158 59.9429 15.6311 59.5464 15.9975C59.0748 16.3962 58.536 16.7072 57.9554 16.9159C57.3374 17.148 56.6829 17.2667 56.023 17.2663C55.3821 17.2784 54.7457 17.1559 54.1548 16.9067C53.5639 16.6574 53.0316 16.287 52.5921 15.8191C51.6897 14.8581 51.1776 13.594 51.156 12.2743H61.64C61.8532 12.2742 62.0636 12.2269 62.2563 12.1356C62.4491 12.0444 62.6194 11.9116 62.7549 11.7467C62.8905 11.5818 62.988 11.3889 63.0405 11.1818C63.093 10.9747 63.0992 10.7585 63.0586 10.5487C62.8548 9.40112 62.395 8.31456 61.7134 7.37029C61.0622 6.49868 60.2098 5.79854 59.2294 5.32993C58.2489 4.86133 57.1698 4.63827 56.0844 4.67991C55.0269 4.64194 53.9759 4.86119 53.0212 5.31897C52.0665 5.77675 51.2366 6.45943 50.6023 7.30869C49.5117 8.70174 48.943 10.4343 48.9955 12.2045C49.048 13.9747 49.7183 15.6703 50.8895 16.9959C51.5475 17.739 52.3634 18.3245 53.2772 18.7092C54.1909 19.094 55.1791 19.2682 56.169 19.2191C57.0986 19.2326 58.023 19.0765 58.8969 18.7583C59.702 18.451 60.4421 17.9942 61.0783 17.4119C61.5607 16.9632 61.9784 16.4495 62.3198 15.8855C62.3945 15.7653 62.4436 15.6309 62.4641 15.4907C62.4846 15.3506 62.4759 15.2077 62.4387 15.0711C62.4018 14.934 62.3373 14.8059 62.2492 14.6948C62.1611 14.5836 62.0513 14.4917 61.9265 14.4247L61.9288 14.4255ZM59.9964 8.49751C60.4232 9.06717 60.7319 9.71671 60.9044 10.4079H51.4001C51.6512 9.47587 52.1442 8.62731 52.829 7.94871C53.7241 7.1371 54.8938 6.69746 56.1004 6.71909C56.8651 6.71835 57.6204 6.8866 58.3129 7.21189C58.9662 7.50431 59.543 7.94465 59.998 8.49829L59.9964 8.49751Z" fill="white"/>
<path d="M26.6628 14.4295C26.4367 14.3093 26.1743 14.2771 25.926 14.3391C25.6777 14.4011 25.461 14.553 25.3176 14.7655C25.0253 15.2198 24.6768 15.6351 24.2803 16.0015C23.8087 16.4001 23.27 16.7111 22.6894 16.9199C22.0715 17.152 21.4169 17.2707 20.757 17.2703C20.1161 17.2824 19.4797 17.1599 18.8889 16.9106C18.298 16.6614 17.7656 16.2909 17.3261 15.8231C16.4237 14.8621 15.9116 13.598 15.8899 12.2783H26.374C26.5871 12.2782 26.7976 12.2309 26.9903 12.1397C27.1831 12.0485 27.3533 11.9157 27.4889 11.7508C27.6244 11.5859 27.722 11.3929 27.7745 11.1858C27.827 10.9787 27.8332 10.7625 27.7926 10.5527C27.5889 9.40512 27.129 8.31858 26.4474 7.37431C25.7963 6.50255 24.944 5.80224 23.9635 5.33349C22.9831 4.86474 21.9038 4.64158 20.8184 4.68312C19.7608 4.64524 18.7097 4.86463 17.7551 5.32255C16.8004 5.78047 15.9705 6.4633 15.3362 7.31271C14.2457 8.70585 13.6773 10.4384 13.7299 12.2086C13.7825 13.9788 14.4529 15.6744 15.6242 16.9999C16.2822 17.743 17.0982 18.3285 18.012 18.7133C18.9257 19.098 19.9139 19.2723 20.9038 19.2231C21.8334 19.2367 22.7578 19.0805 23.6317 18.7623C24.4368 18.4551 25.1769 17.9983 25.8131 17.4159C26.2955 16.9673 26.7133 16.4536 27.0545 15.8895C27.1293 15.7693 27.1785 15.6349 27.1989 15.4948C27.2194 15.3546 27.2107 15.2117 27.1735 15.0751C27.1366 14.938 27.0721 14.8099 26.984 14.6988C26.8959 14.5876 26.7861 14.4957 26.6612 14.4287L26.6628 14.4295ZM24.7304 8.50151C25.1572 9.07115 25.4659 9.72072 25.6383 10.4119H16.1341C16.3852 9.47991 16.8782 8.63133 17.5631 7.9527C18.4581 7.1411 19.6277 6.70148 20.8344 6.72311C21.599 6.72239 22.3544 6.89065 23.0469 7.21591C23.7002 7.50833 24.277 7.94867 24.732 8.50231L24.7304 8.50151Z" fill="white"/>
<path d="M11.544 18.2581V11.4669C11.6121 10.1219 11.4283 8.77606 11.0022 7.49891C10.6511 6.66409 10.0589 5.95365 9.30193 5.45892C8.51149 4.94663 7.58689 4.6818 6.64583 4.69813C5.70646 4.68796 4.78042 4.92166 3.95779 5.37653C3.17906 5.81954 2.49309 6.40928 1.93759 7.11332V0.982922C1.93759 0.855488 1.91254 0.729294 1.86391 0.61156C1.81527 0.493826 1.74399 0.386851 1.65411 0.296741C1.56424 0.206631 1.45755 0.135156 1.34013 0.0863892C1.22271 0.037622 1.09685 0.0125122 0.969758 0.0125122C0.713077 0.0125122 0.466903 0.114755 0.285401 0.296741C0.1039 0.478726 0.00195312 0.725556 0.00195312 0.982922V18.2669C0.00195319 18.5241 0.103831 18.7707 0.285182 18.9525C0.466534 19.1344 0.712485 19.2365 0.968955 19.2365C1.22542 19.2365 1.4714 19.1344 1.65275 18.9525C1.8341 18.7707 1.93598 18.5241 1.93598 18.2669V13.3797C1.89624 12.2068 1.96999 11.0328 2.15619 9.87413C2.3957 8.92627 2.93312 8.08085 3.68892 7.46293C4.41983 6.83434 5.35178 6.4902 6.31471 6.49332C7.05357 6.42884 7.78912 6.6496 8.37114 7.11051C8.95316 7.57142 9.33773 8.23771 9.44635 8.97333C9.60554 9.956 9.66756 10.952 9.63148 11.9469V18.2669C9.632 18.5215 9.73339 18.7655 9.91332 18.9452C10.0932 19.1248 10.337 19.2254 10.5909 19.2249C10.8448 19.2244 11.0882 19.1227 11.2673 18.9423C11.4465 18.7619 11.5469 18.5175 11.5464 18.2629V18.2565L11.544 18.2581Z" fill="white"/>
<path d="M34.5497 4.6791C33.5526 4.59409 32.5583 4.87152 31.7483 5.46072C30.7685 6.27933 30.1449 7.44826 30.0098 8.7199V18.2399C30.0098 18.5081 30.116 18.7653 30.3051 18.9549C30.4943 19.1446 30.7508 19.2511 31.0183 19.2511C31.2857 19.2511 31.5423 19.1446 31.7314 18.9549C31.9205 18.7653 32.0268 18.5081 32.0268 18.2399V8.8615C32.1101 8.16853 32.4463 7.53102 32.9707 7.0719C33.4823 6.847 34.0313 6.71976 34.5895 6.6967C34.8527 6.68626 35.1023 6.57681 35.2886 6.39016C35.4749 6.20351 35.5842 5.95335 35.5949 5.6895C35.5934 5.55417 35.5652 5.42049 35.5119 5.29617C35.4586 5.17184 35.3812 5.05936 35.2842 4.96523C35.1872 4.87111 35.0725 4.79721 34.9468 4.74783C34.8212 4.69844 34.687 4.67454 34.552 4.67751L34.5497 4.6791Z" fill="white"/>
<path d="M48.1179 17.504L42.7282 10.0232L46.5197 6.68801C46.7096 6.51827 46.8243 6.27987 46.8389 6.02527C46.8534 5.77067 46.7664 5.52074 46.5971 5.33042C46.4278 5.1401 46.1901 5.025 45.9361 5.01045C45.6822 4.9959 45.4329 5.08307 45.2431 5.25281L39.7091 10.0904V0.97041C39.7091 0.713044 39.6071 0.466214 39.4256 0.284228C39.2441 0.102243 38.9979 0 38.7413 0C38.4846 0 38.2384 0.102243 38.0569 0.284228C37.8754 0.466214 37.7734 0.713044 37.7734 0.97041V18.2568C37.7807 18.5095 37.8859 18.7493 38.0666 18.9255C38.2474 19.1016 38.4896 19.2001 38.7417 19.2001C38.9937 19.2001 39.2359 19.1016 39.4167 18.9255C39.5975 18.7493 39.7026 18.5095 39.7099 18.2568V12.6768L41.107 11.4944L46.3689 18.7888C46.5424 19.0096 46.7946 19.1543 47.0723 19.1925C47.3501 19.2307 47.6318 19.1594 47.8582 18.9936C48.0845 18.8278 48.2379 18.5803 48.2861 18.3034C48.3342 18.0265 48.2733 17.7417 48.1163 17.5088L48.1179 17.504Z" fill="white"/>
<path d="M65.3892 5.26551C65.3303 5.13712 65.2454 5.02239 65.1399 4.92862C65.0344 4.83485 64.9107 4.76405 64.7765 4.72073C64.6423 4.67742 64.5007 4.66253 64.3604 4.67698C64.2202 4.69144 64.0845 4.73491 63.9619 4.80469C63.7007 4.94913 63.5074 5.19165 63.4246 5.47894C63.3417 5.76622 63.376 6.07476 63.5199 6.3367L67.8986 14.3719L63.456 22.5063C63.3864 22.6267 63.3425 22.7603 63.3268 22.8986C63.3111 23.0368 63.324 23.1769 63.3649 23.3099C63.4057 23.4429 63.4735 23.566 63.564 23.6716C63.6545 23.7771 63.7658 23.8627 63.8909 23.9231C64.1515 24.0612 64.4558 24.0911 64.7382 24.0062C65.0206 23.9213 65.2585 23.7286 65.4004 23.4695L70.368 14.3735L65.3877 5.2647L65.3892 5.26551Z" fill="white"/>
<path d="M74.2777 4.75158C73.9948 4.64858 73.6832 4.65889 73.4077 4.78032C73.1322 4.90175 72.914 5.12497 72.7984 5.40358C72.7984 5.40358 69.9675 10.574 69.7832 10.9156L71.016 13.1812L74.8314 6.19079C74.893 6.06035 74.9276 5.91871 74.9329 5.77446C74.9383 5.63021 74.9144 5.48637 74.8626 5.35168C74.8108 5.217 74.7323 5.09428 74.6317 4.99099C74.5311 4.88769 74.4107 4.80676 74.2777 4.75158Z" fill="white"/>
</g>
<defs>
<clipPath id="clip0_25_491">
<rect width="75" height="24" fill="white"/>
</clipPath>
</defs>
</svg>
